    <svg id="Layer_1" data-name="Layer 1" xmlns="http://www.w3.org/2000/svg" xmlns:xlink="http://www.w3.org/1999/xlink" width="2560" height="1440" viewBox="0 0 2560 1440">
      <defs>
        <style>
          .cls-1 {
            fill: none;
            height: 100%;
            width: 100%;
          }
    
          .cls-2 {
            clip-path: url(#clip-path);
          }
          
          .cls-3 {
            fill: var(--color--);
            transition: .5s ease fill;
          }
        </style>
        <clipPath id="clip-path">
          <rect class="cls-1"/>
        </clipPath>
      </defs>
      <g class="cls-2">
        <g>
          <path class="cls-3" d="M1867.92-297.9,2455.55,719.9,1867.92,1737.69H692.67L105.05,719.9,692.67-297.9H1867.92m.58-1H692.1L103.9,719.9,692.1,1738.69H1868.5L2456.7,719.9,1868.5-298.9Z"/>
          <path class="cls-3" d="M1538.32-243.06l704.93,704.93-258,963-962.95,258L317.34,977.92,575.37,15l963-258m.3-1.11L574.55,14.15,316.23,978.22,1022,1684l964.07-258.33,258.32-964.06L1538.62-244.17Z"/>
          <path class="cls-3" d="M1280.3-83.11,1975.72,318.4v803L1280.3,1522.9,584.88,1121.4v-803L1280.3-83.11m0-1.15L583.88,317.82V1122l696.42,402.08L1976.72,1122V317.82L1280.3-84.26Z"/>
        </g>
      </g>
    </svg>