<svg fill="#515151" xmlns="http://www.w3.org/2000/svg" viewBox="0 0 101 101"><defs><style>.cls-1{fill:none;stroke:#fff;stroke-miterlimit:10;}</style></defs><g id="Layer_2" data-name="Layer 2"><g id="Layer_1-2" data-name="Layer 1"><rect width="101" height="101"/><path class="cls-1" d="M30.36,48.74a1.14,1.14,0,1,1-1.58-1.65l.31-.31a1.15,1.15,0,0,1,1.62,0,1.16,1.16,0,0,1,0,1.63Zm33.7-10.55a1.15,1.15,0,1,1,1.6,1.64l-.31.31a1.15,1.15,0,0,1-1.63-1.62l.34-.33ZM61.21,42a1.15,1.15,0,1,1,2,1C62,45.62,60.8,48.34,59.59,51a1.15,1.15,0,0,1-2.08,0L54.17,43.7A12.48,12.48,0,0,0,51.65,40l0-.06A12.51,12.51,0,0,0,48,37.53l-7.28-3.35a1.15,1.15,0,0,1,0-2.08L48,28.76a12.64,12.64,0,0,0,3.66-2.51,12.83,12.83,0,0,0,2.51-3.67l3.34-7.27a1.15,1.15,0,0,1,2.09,0l3.34,7.28a12.34,12.34,0,0,0,2.51,3.65l0,.06a12.37,12.37,0,0,0,3.61,2.45l7.27,3.35A1.14,1.14,0,0,1,77,33.61a1.17,1.17,0,0,1-.57.57c-2.58,1.19-5.24,2.34-7.78,3.59a1.14,1.14,0,1,1-1-2.05c1.83-.9,3.72-1.73,5.58-2.58l-5-2.31a14.88,14.88,0,0,1-4.25-2.9l-.07-.06a14.7,14.7,0,0,1-3-4.33l-2.31-5-2.31,5A14.26,14.26,0,0,1,49,30.83l-5,2.31,5,2.31a14.52,14.52,0,0,1,4.26,2.9l.07.06a14.7,14.7,0,0,1,3,4.33l2.31,5c.88-1.91,1.72-3.88,2.67-5.75ZM70.5,73a1.14,1.14,0,1,1,1.6,1.63l-.31.31a1.14,1.14,0,1,1-1.63-1.6Zm-2.82,3.84a1.14,1.14,0,1,1,2,1c-1.27,2.56-2.42,5.24-3.62,7.85a1.16,1.16,0,0,1-1.52.57,1.15,1.15,0,0,1-.56-.57l-3.35-7.28a12.14,12.14,0,0,0-6.17-6.16L47.22,68.9a1.15,1.15,0,0,1,0-2.08l7.28-3.35A12.26,12.26,0,0,0,58.16,61l.06-.05a12.86,12.86,0,0,0,2.45-3.6L64,50a1.15,1.15,0,0,1,1.52-.56,1.13,1.13,0,0,1,.56.56l3.35,7.28a12,12,0,0,0,6.17,6.16l7.28,3.35a1.15,1.15,0,0,1,.56,1.52,1.13,1.13,0,0,1-.56.56c-2.61,1.2-5.31,2.36-7.86,3.64a1.15,1.15,0,0,1-1-2.05c1.86-.93,3.79-1.76,5.68-2.63l-5-2.3a14.33,14.33,0,0,1-7.28-7.29l-2.31-5-2.31,5a14.82,14.82,0,0,1-2.91,4.26l-.06.07a14.65,14.65,0,0,1-4.32,3l-5,2.31,5,2.3a14.4,14.4,0,0,1,7.29,7.29l2.31,5c.86-1.88,1.69-3.81,2.62-5.66ZM33.23,45a1.14,1.14,0,0,1-2-1c1.33-2.59,2.49-5.36,3.71-8a1.14,1.14,0,0,1,2.08,0l3.35,7.28a12.14,12.14,0,0,0,6.16,6.17l7.28,3.34a1.15,1.15,0,0,1,.57,1.52,1.17,1.17,0,0,1-.57.57l-7.28,3.34a12.17,12.17,0,0,0-6.16,6.16L37,71.56a1.14,1.14,0,0,1-2.08,0l-3.35-7.27A12.26,12.26,0,0,0,29,60.63L29,60.57a12.45,12.45,0,0,0-3.6-2.45l-7.28-3.34a1.16,1.16,0,0,1,0-2.09c2.57-1.18,5.18-2.32,7.72-3.55a1.14,1.14,0,0,1,1.53.53,1.15,1.15,0,0,1-.54,1.53c-1.81.88-3.67,1.69-5.5,2.53l5,2.31A14.88,14.88,0,0,1,30.6,59l.07.06a14.79,14.79,0,0,1,3,4.32l2.31,5,2.31-5a14.2,14.2,0,0,1,7.29-7.29l5-2.31-5-2.31a14.2,14.2,0,0,1-7.29-7.29l-2.31-5C35,41.06,34.2,43.06,33.23,45Z"/></g></g></svg>