<svg xmlns="http://www.w3.org/2000/svg" width="529.11" height="100.71" viewBox="0 0 529.11 100.71">
  <defs>
    <style>
      .cls-1 {
        fill: #f7931e;
      }
    </style>
  </defs>
  <g id="Layer_2" data-name="Layer 2">
    <g id="Layer_1-2" data-name="Layer 1">
      <g>
        <polygon class="cls-1" points="52.95 0 69.31 33.15 105.89 38.47 79.42 64.27 85.67 100.71 52.95 83.51 20.22 100.71 26.47 64.27 0 38.47 36.59 33.15 52.95 0"/>
        <polygon class="cls-1" points="158.75 0 175.11 33.15 211.7 38.47 185.22 64.27 191.47 100.71 158.75 83.51 126.03 100.71 132.28 64.27 105.81 38.47 142.39 33.15 158.75 0"/>
        <polygon class="cls-1" points="264.56 0 280.92 33.15 317.5 38.47 291.03 64.27 297.28 100.71 264.56 83.51 231.83 100.71 238.08 64.27 211.61 38.47 248.2 33.15 264.56 0"/>
        <polygon class="cls-1" points="370.36 0 386.72 33.15 423.31 38.47 396.84 64.27 403.08 100.71 370.36 83.51 337.64 100.71 343.89 64.27 317.42 38.47 354 33.15 370.36 0"/>
        <polygon class="cls-1" points="476.17 0 492.53 33.15 529.11 38.47 502.64 64.27 508.89 100.71 476.17 83.51 443.44 100.71 449.69 64.27 423.22 38.47 459.81 33.15 476.17 0"/>
      </g>
    </g>
  </g>
</svg>
