<svg xmlns="http://www.w3.org/2000/svg" viewBox="0 0 101 101"><defs><style>.cls-1{fill:none;stroke:#fff;stroke-miterlimit:10;}</style></defs><g id="Layer_2" data-name="Layer 2"><g id="Layer_1-2" data-name="Layer 1"><rect width="101" height="101"/><path class="cls-1" d="M85.77,38.61a38.31,38.31,0,1,0-62.36,42,1.18,1.18,0,0,0,1.66,0l8.34-8.34a1.17,1.17,0,0,0-1.66-1.66l-2.27,2.27A28.34,28.34,0,0,1,22,54.69h3.2a1.18,1.18,0,0,0,0-2.35H22a28.43,28.43,0,0,1,7.53-18.16l2.26,2.25a1.17,1.17,0,0,0,1.66-1.66l-2.25-2.25A28.39,28.39,0,0,1,49.32,25v3.2a1.18,1.18,0,0,0,2.35,0V25a28.39,28.39,0,0,1,18.17,7.54l-2.26,2.25a1.17,1.17,0,0,0,0,1.66,1.19,1.19,0,0,0,.84.34,1.16,1.16,0,0,0,.83-.34l2.25-2.25A28.39,28.39,0,0,1,79,52.34h-3.2a1.18,1.18,0,1,0,0,2.35H79a28.32,28.32,0,0,1-7.53,18.18l-2.26-2.26a1.15,1.15,0,0,0-1.66,0,1.17,1.17,0,0,0,0,1.66l8.34,8.33a1.18,1.18,0,0,0,.83.35h0a1.19,1.19,0,0,0,.83-.36l0,0a38.22,38.22,0,0,0,8.15-42Zm-9,39.49-3.56-3.57a30.91,30.91,0,1,0-45.35,0l-3.56,3.56a36,36,0,1,1,52.47,0Z"/><path class="cls-1" d="M49.74,60.13l13.55.18h0a1.18,1.18,0,0,0,.8-2l-9.93-9.21a6.13,6.13,0,0,0-8.05-.29,6.55,6.55,0,0,0-2,2.7,6.64,6.64,0,0,0-.41,3.33,6.14,6.14,0,0,0,6,5.33Zm-3.43-7.79a4.25,4.25,0,0,1,1.28-1.74A3.85,3.85,0,0,1,50,49.76a3.8,3.8,0,0,1,2.6,1l7.69,7.13-10.49-.13A3.81,3.81,0,0,1,46,54.48a4.13,4.13,0,0,1,.27-2.14Z"/><path class="cls-1" d="M66.32,75.27a5,5,0,0,0-3.63-1.5H38.28a5,5,0,0,0-3.64,1.5l-5.86,5.87a2.72,2.72,0,0,0,1.91,4.64H70.26a2.72,2.72,0,0,0,1.93-4.64Zm4.29,7.93a.35.35,0,0,1-.34.23H30.7a.37.37,0,0,1-.26-.63l5.86-5.87a2.68,2.68,0,0,1,2-.82h24.4a2.68,2.68,0,0,1,2,.82l5.87,5.87a.35.35,0,0,1,.08.4Z"/></g></g></svg>