<?xml version="1.0" encoding="utf-8"?>
<!-- Generator: Adobe Illustrator 24.1.0, SVG Export Plug-In . SVG Version: 6.00 Build 0)  -->
<svg fill="#515151" version="1.1" id="Layer_1" xmlns="http://www.w3.org/2000/svg" xmlns:xlink="http://www.w3.org/1999/xlink" x="0px" y="0px"
	 viewBox="0 0 101 101" style="enable-background:new 0 0 101 101;" xml:space="preserve">
<style type="text/css">
	.st0{fill:none;stroke:#FFFFFF;stroke-miterlimit:10;}
</style>
<g id="Layer_2_1_">
	<g id="Layer_1-2">
		<rect width="101" height="101"/>
		<path class="st0" d="M83.6,49.3h-1.2v-2.5c0-17.7-14.3-32-32-32s-32,14.3-32,32v2.5h-1c-2.2,0-4,1.8-4.1,4v10.1c0,2.2,1.8,4,4.1,4
			h6.3c2.2,0,4-1.8,4-4V53.4c0-2.2-1.8-4-4-4h-1.3v-2.5C22.7,31.4,35.5,19,51,19.3c15.1,0.3,27.3,12.4,27.5,27.5v2.5h-1.2
			c-2.2,0-4,1.8-4,4v10.1c0,2.2,1.8,4,4,4c0,0,0,0,0,0h1.1c-0.6,5.4-5.1,9.5-10.6,9.6h-3.5v-1.2c0-2.2-1.8-4-4-4H50.2
			c-2.2,0-4,1.8-4.1,4V82c0,2.2,1.8,4,4.1,4h10.1c2.2,0,4-1.8,4-4v-1.2h3.5c7.6,0,13.9-5.8,14.5-13.4h1.2c2.2,0,4-1.8,4-4V53.4
			C87.6,51.2,85.8,49.4,83.6,49.3L83.6,49.3z M23.8,53.3v10.1c0,0.1-0.1,0.1-0.1,0.1h-6.3c-0.1,0-0.1-0.1-0.1-0.1V53.4
			c0-0.1,0.1-0.1,0.1-0.1h6.3C23.8,53.2,23.8,53.3,23.8,53.3L23.8,53.3z M60.4,82c0,0.1-0.1,0.1-0.1,0.1H50.2c-0.1,0-0.1,0-0.1-0.1
			c0,0,0,0,0,0v-6.2c0-0.1,0.1-0.1,0.1-0.1h10.1c0.1,0,0.1,0.1,0.1,0.1L60.4,82z M83.7,63.4c0,0.1-0.1,0.1-0.1,0.1l0,0h-6.3
			c-0.1,0-0.1-0.1-0.1-0.1l0,0V53.4c0-0.1,0.1-0.1,0.1-0.1l0,0h6.3c0.1,0,0.1,0.1,0.1,0.1l0,0V63.4z"/>
	</g>
</g>
</svg>
