<svg xmlns="http://www.w3.org/2000/svg" viewBox="0 0 101 101"><defs><style>.cls-1{fill:none;stroke:#fff;stroke-miterlimit:10;}</style></defs><g id="Layer_2" data-name="Layer 2"><g id="Layer_1-2" data-name="Layer 1"><rect width="101" height="101"/><path class="cls-1" d="M83.59,49.32H82.43V46.87a32,32,0,0,0-64,0v2.45h-1a4.05,4.05,0,0,0-4.06,4V63.44a4.05,4.05,0,0,0,4.06,4H23.7a4.05,4.05,0,0,0,4.05-4V53.36a4.05,4.05,0,0,0-4.05-4H22.38V46.87a28.07,28.07,0,0,1,56.13,0v2.45H77.32a4,4,0,0,0-4,4V63.44a4,4,0,0,0,4,4h1.12A10.66,10.66,0,0,1,67.86,77H64.35V75.78a4,4,0,0,0-4-4H50.22a4.05,4.05,0,0,0-4.06,4v6.27a4.05,4.05,0,0,0,4.06,4H60.31a4,4,0,0,0,4-4V80.89h3.51a14.59,14.59,0,0,0,14.51-13.4h1.22a4.05,4.05,0,0,0,4-4V53.36a4,4,0,0,0-4-4Zm-59.76,4V63.44a.15.15,0,0,1-.13.13H17.43a.14.14,0,0,1-.14-.12V53.36a.14.14,0,0,1,.14-.12H23.7a.14.14,0,0,1,.13.12Zm36.6,28.69a.14.14,0,0,1-.12.12H50.22a.13.13,0,0,1-.14-.12V75.78a.14.14,0,0,1,.14-.12H60.31a.14.14,0,0,1,.12.12ZM83.71,63.44a.12.12,0,0,1-.12.12H77.32a.12.12,0,0,1-.12-.12V53.36a.12.12,0,0,1,.12-.12h6.27a.12.12,0,0,1,.12.12Z"/></g></g></svg>